<?xml version="1.0" encoding="UTF-8"?>
<svg width="16px" height="16px" viewBox="0 0 16 16" version="1.1" xmlns="http://www.w3.org/2000/svg" xmlns:xlink="http://www.w3.org/1999/xlink">
    <!-- Generator: Sketch 48.2 (47327) - http://www.bohemiancoding.com/sketch -->
    <title>Slice 1</title>
    <desc>Created with Sketch.</desc>
    <defs></defs>
    <g id="Page-1" stroke="none" stroke-width="1" fill="none" fill-rule="evenodd">
        <g id="if_icon-close-circled_211650" fill="#000000" fill-rule="nonzero">
            <path d="M15.5745916,13.3013702 C15.6785393,13.4053178 15.733978,13.5439147 15.733978,13.6894415 C15.733978,13.8349682 15.6785393,13.9804949 15.5745916,14.0775127 L14.0777452,15.581289 C13.9668677,15.6921665 13.8282708,15.7406754 13.6896739,15.7406754 C13.551077,15.7406754 13.4055503,15.6852366 13.3016026,15.581289 L8.06957016,10.3423266 L2.84446752,15.5882188 C2.74051985,15.6990963 2.59499312,15.7476052 2.45639623,15.7476052 C2.31779935,15.7476052 2.17227261,15.6921665 2.06832495,15.5882188 L0.57147857,14.0844426 C0.467530905,13.9804949 0.41209215,13.841898 0.41209215,13.6963713 C0.41209215,13.5508446 0.467530905,13.4053178 0.57147857,13.3083 L5.81737074,8.04161832 L0.557618881,2.84423506 C0.342793706,2.62940988 0.342793706,2.27598782 0.557618881,2.06116264 L2.05446526,0.55738642 C2.15841293,0.453438755 2.29700981,0.398 2.44253654,0.398 C2.58806328,0.398 2.72666016,0.453438755 2.83060783,0.55738642 L8.0765,5.73398015 L13.3223922,0.55738642 C13.4263398,0.453438755 13.5649367,0.398 13.7104635,0.398 C13.8559902,0.398 13.9945871,0.453438755 14.0985347,0.55738642 L15.5953811,2.06116264 C15.8102063,2.27598782 15.8102063,2.62940988 15.5953811,2.84423506 L10.3356293,8.04161832 L15.5745916,13.3013702 Z" id="Shape"></path>
        </g>
    </g>
</svg>